<?xml version="1.0" encoding="utf-8" standalone="no"?>
<!DOCTYPE svg PUBLIC "-//W3C//DTD SVG 1.1//EN"
  "http://www.w3.org/Graphics/SVG/1.1/DTD/svg11.dtd">
<!-- Created with matplotlib (https://matplotlib.org/) -->
<svg height="337.953895pt" version="1.1" viewBox="0 0 453.545 337.953895" width="453.545pt" xmlns="http://www.w3.org/2000/svg" xmlns:xlink="http://www.w3.org/1999/xlink">
 <metadata>
  <rdf:RDF xmlns:cc="http://creativecommons.org/ns#" xmlns:dc="http://purl.org/dc/elements/1.1/" xmlns:rdf="http://www.w3.org/1999/02/22-rdf-syntax-ns#">
   <cc:Work>
    <dc:type rdf:resource="http://purl.org/dc/dcmitype/StillImage"/>
    <dc:date>2024-07-30T15:54:35.175710</dc:date>
    <dc:format>image/svg+xml</dc:format>
    <dc:creator>
     <cc:Agent>
      <dc:title>Matplotlib v3.3.4, https://matplotlib.org/</dc:title>
     </cc:Agent>
    </dc:creator>
   </cc:Work>
  </rdf:RDF>
 </metadata>
 <defs>
  <style type="text/css">*{stroke-linecap:butt;stroke-linejoin:round;}</style>
 </defs>
 <g id="figure_1">
  <g id="patch_1">
   <path d="M 0 337.953895 
L 453.545 337.953895 
L 453.545 0 
L 0 0 
z
" style="fill:#ffffff;"/>
  </g>
  <g id="axes_1">
   <g id="patch_2">
    <path d="M 36.925 330.753895 
L 446.345 330.753895 
L 446.345 9.340897 
L 36.925 9.340897 
z
" style="fill:#ffffff;"/>
   </g>
   <g id="patch_3">
    <path clip-path="url(#p6f6e050d69)" d="M 97.288205 292.411475 
L 97.288205 191.907098 
L 97.288205 191.907098 
L 102.537179 183.018491 
L 107.786154 174.829394 
L 113.035128 167.315687 
L 118.284103 160.453248 
L 123.533077 154.217956 
L 128.782051 148.585691 
L 134.031026 143.532331 
L 139.28 139.033755 
L 144.528974 135.065842 
L 149.777949 131.604471 
L 155.026923 128.625522 
L 160.275897 126.104872 
L 165.524872 124.018401 
L 170.773846 122.341988 
L 176.022821 121.051512 
L 181.271795 120.122851 
L 186.520769 119.531886 
L 191.769744 119.254493 
L 197.018718 119.266554 
L 202.267692 119.543946 
L 207.516667 120.062549 
L 212.765641 120.798241 
L 218.014615 121.726901 
L 223.26359 122.824409 
L 228.512564 124.066643 
L 233.761538 125.429482 
L 239.010513 126.888806 
L 244.259487 128.420493 
L 249.508462 130.000421 
L 254.757436 131.604471 
L 260.00641 133.208521 
L 265.255385 134.78845 
L 270.504359 136.320137 
L 275.753333 137.77946 
L 281.002308 139.1423 
L 286.251282 140.384534 
L 291.500256 141.482042 
L 296.749231 142.410702 
L 301.998205 143.146394 
L 307.247179 143.664997 
L 312.496154 143.942389 
L 317.745128 143.954449 
L 322.994103 143.677057 
L 328.243077 143.086091 
L 333.492051 142.157431 
L 338.741026 140.866955 
L 343.99 139.190542 
L 349.238974 137.104071 
L 354.487949 134.583421 
L 359.736923 131.604471 
L 364.985897 128.143101 
L 370.234872 124.175188 
L 375.483846 119.676612 
L 380.732821 114.623252 
L 385.981795 108.990986 
L 391.230769 102.755695 
L 396.479744 95.893256 
L 401.728718 88.379549 
L 406.977692 80.190452 
L 412.226667 71.301845 
L 412.226667 292.411475 
z
" style="fill:#cccccc;"/>
   </g>
   <g id="matplotlib.axis_1">
    <g id="xtick_1">
     <g id="line2d_1">
      <defs>
       <path d="M 0 0 
L 0 3.5 
" id="m6651b42a51" style="stroke:#000000;stroke-width:0.8;"/>
      </defs>
      <g>
       <use style="stroke:#000000;stroke-width:0.8;" x="44.798462" xlink:href="#m6651b42a51" y="292.411475"/>
      </g>
     </g>
     <g id="text_1">
      <!-- 1 -->
      <g transform="translate(41.617212 307.009912)scale(0.1 -0.1)">
       <defs>
        <path d="M 12.40625 8.296875 
L 28.515625 8.296875 
L 28.515625 63.921875 
L 10.984375 60.40625 
L 10.984375 69.390625 
L 28.421875 72.90625 
L 38.28125 72.90625 
L 38.28125 8.296875 
L 54.390625 8.296875 
L 54.390625 0 
L 12.40625 0 
z
" id="DejaVuSans-49"/>
       </defs>
       <use xlink:href="#DejaVuSans-49"/>
      </g>
     </g>
    </g>
    <g id="xtick_2">
     <g id="line2d_2">
      <g>
       <use style="stroke:#000000;stroke-width:0.8;" x="97.288205" xlink:href="#m6651b42a51" y="292.411475"/>
      </g>
     </g>
     <g id="text_2">
      <!-- 2 -->
      <g transform="translate(94.106955 307.009912)scale(0.1 -0.1)">
       <defs>
        <path d="M 19.1875 8.296875 
L 53.609375 8.296875 
L 53.609375 0 
L 7.328125 0 
L 7.328125 8.296875 
Q 12.9375 14.109375 22.625 23.890625 
Q 32.328125 33.6875 34.8125 36.53125 
Q 39.546875 41.84375 41.421875 45.53125 
Q 43.3125 49.21875 43.3125 52.78125 
Q 43.3125 58.59375 39.234375 62.25 
Q 35.15625 65.921875 28.609375 65.921875 
Q 23.96875 65.921875 18.8125 64.3125 
Q 13.671875 62.703125 7.8125 59.421875 
L 7.8125 69.390625 
Q 13.765625 71.78125 18.9375 73 
Q 24.125 74.21875 28.421875 74.21875 
Q 39.75 74.21875 46.484375 68.546875 
Q 53.21875 62.890625 53.21875 53.421875 
Q 53.21875 48.921875 51.53125 44.890625 
Q 49.859375 40.875 45.40625 35.40625 
Q 44.1875 33.984375 37.640625 27.21875 
Q 31.109375 20.453125 19.1875 8.296875 
z
" id="DejaVuSans-50"/>
       </defs>
       <use xlink:href="#DejaVuSans-50"/>
      </g>
     </g>
    </g>
    <g id="xtick_3">
     <g id="line2d_3">
      <g>
       <use style="stroke:#000000;stroke-width:0.8;" x="149.777949" xlink:href="#m6651b42a51" y="292.411475"/>
      </g>
     </g>
     <g id="text_3">
      <!-- 3 -->
      <g transform="translate(146.596699 307.009912)scale(0.1 -0.1)">
       <defs>
        <path d="M 40.578125 39.3125 
Q 47.65625 37.796875 51.625 33 
Q 55.609375 28.21875 55.609375 21.1875 
Q 55.609375 10.40625 48.1875 4.484375 
Q 40.765625 -1.421875 27.09375 -1.421875 
Q 22.515625 -1.421875 17.65625 -0.515625 
Q 12.796875 0.390625 7.625 2.203125 
L 7.625 11.71875 
Q 11.71875 9.328125 16.59375 8.109375 
Q 21.484375 6.890625 26.8125 6.890625 
Q 36.078125 6.890625 40.9375 10.546875 
Q 45.796875 14.203125 45.796875 21.1875 
Q 45.796875 27.640625 41.28125 31.265625 
Q 36.765625 34.90625 28.71875 34.90625 
L 20.21875 34.90625 
L 20.21875 43.015625 
L 29.109375 43.015625 
Q 36.375 43.015625 40.234375 45.921875 
Q 44.09375 48.828125 44.09375 54.296875 
Q 44.09375 59.90625 40.109375 62.90625 
Q 36.140625 65.921875 28.71875 65.921875 
Q 24.65625 65.921875 20.015625 65.03125 
Q 15.375 64.15625 9.8125 62.3125 
L 9.8125 71.09375 
Q 15.4375 72.65625 20.34375 73.4375 
Q 25.25 74.21875 29.59375 74.21875 
Q 40.828125 74.21875 47.359375 69.109375 
Q 53.90625 64.015625 53.90625 55.328125 
Q 53.90625 49.265625 50.4375 45.09375 
Q 46.96875 40.921875 40.578125 39.3125 
z
" id="DejaVuSans-51"/>
       </defs>
       <use xlink:href="#DejaVuSans-51"/>
      </g>
     </g>
    </g>
    <g id="xtick_4">
     <g id="line2d_4">
      <g>
       <use style="stroke:#000000;stroke-width:0.8;" x="202.267692" xlink:href="#m6651b42a51" y="292.411475"/>
      </g>
     </g>
     <g id="text_4">
      <!-- 4 -->
      <g transform="translate(199.086442 307.009912)scale(0.1 -0.1)">
       <defs>
        <path d="M 37.796875 64.3125 
L 12.890625 25.390625 
L 37.796875 25.390625 
z
M 35.203125 72.90625 
L 47.609375 72.90625 
L 47.609375 25.390625 
L 58.015625 25.390625 
L 58.015625 17.1875 
L 47.609375 17.1875 
L 47.609375 0 
L 37.796875 0 
L 37.796875 17.1875 
L 4.890625 17.1875 
L 4.890625 26.703125 
z
" id="DejaVuSans-52"/>
       </defs>
       <use xlink:href="#DejaVuSans-52"/>
      </g>
     </g>
    </g>
    <g id="xtick_5">
     <g id="line2d_5">
      <g>
       <use style="stroke:#000000;stroke-width:0.8;" x="254.757436" xlink:href="#m6651b42a51" y="292.411475"/>
      </g>
     </g>
     <g id="text_5">
      <!-- 5 -->
      <g transform="translate(251.576186 307.009912)scale(0.1 -0.1)">
       <defs>
        <path d="M 10.796875 72.90625 
L 49.515625 72.90625 
L 49.515625 64.59375 
L 19.828125 64.59375 
L 19.828125 46.734375 
Q 21.96875 47.46875 24.109375 47.828125 
Q 26.265625 48.1875 28.421875 48.1875 
Q 40.625 48.1875 47.75 41.5 
Q 54.890625 34.8125 54.890625 23.390625 
Q 54.890625 11.625 47.5625 5.09375 
Q 40.234375 -1.421875 26.90625 -1.421875 
Q 22.3125 -1.421875 17.546875 -0.640625 
Q 12.796875 0.140625 7.71875 1.703125 
L 7.71875 11.625 
Q 12.109375 9.234375 16.796875 8.0625 
Q 21.484375 6.890625 26.703125 6.890625 
Q 35.15625 6.890625 40.078125 11.328125 
Q 45.015625 15.765625 45.015625 23.390625 
Q 45.015625 31 40.078125 35.4375 
Q 35.15625 39.890625 26.703125 39.890625 
Q 22.75 39.890625 18.8125 39.015625 
Q 14.890625 38.140625 10.796875 36.28125 
z
" id="DejaVuSans-53"/>
       </defs>
       <use xlink:href="#DejaVuSans-53"/>
      </g>
     </g>
    </g>
    <g id="xtick_6">
     <g id="line2d_6">
      <g>
       <use style="stroke:#000000;stroke-width:0.8;" x="307.247179" xlink:href="#m6651b42a51" y="292.411475"/>
      </g>
     </g>
     <g id="text_6">
      <!-- 6 -->
      <g transform="translate(304.065929 307.009912)scale(0.1 -0.1)">
       <defs>
        <path d="M 33.015625 40.375 
Q 26.375 40.375 22.484375 35.828125 
Q 18.609375 31.296875 18.609375 23.390625 
Q 18.609375 15.53125 22.484375 10.953125 
Q 26.375 6.390625 33.015625 6.390625 
Q 39.65625 6.390625 43.53125 10.953125 
Q 47.40625 15.53125 47.40625 23.390625 
Q 47.40625 31.296875 43.53125 35.828125 
Q 39.65625 40.375 33.015625 40.375 
z
M 52.59375 71.296875 
L 52.59375 62.3125 
Q 48.875 64.0625 45.09375 64.984375 
Q 41.3125 65.921875 37.59375 65.921875 
Q 27.828125 65.921875 22.671875 59.328125 
Q 17.53125 52.734375 16.796875 39.40625 
Q 19.671875 43.65625 24.015625 45.921875 
Q 28.375 48.1875 33.59375 48.1875 
Q 44.578125 48.1875 50.953125 41.515625 
Q 57.328125 34.859375 57.328125 23.390625 
Q 57.328125 12.15625 50.6875 5.359375 
Q 44.046875 -1.421875 33.015625 -1.421875 
Q 20.359375 -1.421875 13.671875 8.265625 
Q 6.984375 17.96875 6.984375 36.375 
Q 6.984375 53.65625 15.1875 63.9375 
Q 23.390625 74.21875 37.203125 74.21875 
Q 40.921875 74.21875 44.703125 73.484375 
Q 48.484375 72.75 52.59375 71.296875 
z
" id="DejaVuSans-54"/>
       </defs>
       <use xlink:href="#DejaVuSans-54"/>
      </g>
     </g>
    </g>
    <g id="xtick_7">
     <g id="line2d_7">
      <g>
       <use style="stroke:#000000;stroke-width:0.8;" x="359.736923" xlink:href="#m6651b42a51" y="292.411475"/>
      </g>
     </g>
     <g id="text_7">
      <!-- 7 -->
      <g transform="translate(356.555673 307.009912)scale(0.1 -0.1)">
       <defs>
        <path d="M 8.203125 72.90625 
L 55.078125 72.90625 
L 55.078125 68.703125 
L 28.609375 0 
L 18.3125 0 
L 43.21875 64.59375 
L 8.203125 64.59375 
z
" id="DejaVuSans-55"/>
       </defs>
       <use xlink:href="#DejaVuSans-55"/>
      </g>
     </g>
    </g>
    <g id="xtick_8">
     <g id="line2d_8">
      <g>
       <use style="stroke:#000000;stroke-width:0.8;" x="412.226667" xlink:href="#m6651b42a51" y="292.411475"/>
      </g>
     </g>
     <g id="text_8">
      <!-- 8 -->
      <g transform="translate(409.045417 307.009912)scale(0.1 -0.1)">
       <defs>
        <path d="M 31.78125 34.625 
Q 24.75 34.625 20.71875 30.859375 
Q 16.703125 27.09375 16.703125 20.515625 
Q 16.703125 13.921875 20.71875 10.15625 
Q 24.75 6.390625 31.78125 6.390625 
Q 38.8125 6.390625 42.859375 10.171875 
Q 46.921875 13.96875 46.921875 20.515625 
Q 46.921875 27.09375 42.890625 30.859375 
Q 38.875 34.625 31.78125 34.625 
z
M 21.921875 38.8125 
Q 15.578125 40.375 12.03125 44.71875 
Q 8.5 49.078125 8.5 55.328125 
Q 8.5 64.0625 14.71875 69.140625 
Q 20.953125 74.21875 31.78125 74.21875 
Q 42.671875 74.21875 48.875 69.140625 
Q 55.078125 64.0625 55.078125 55.328125 
Q 55.078125 49.078125 51.53125 44.71875 
Q 48 40.375 41.703125 38.8125 
Q 48.828125 37.15625 52.796875 32.3125 
Q 56.78125 27.484375 56.78125 20.515625 
Q 56.78125 9.90625 50.3125 4.234375 
Q 43.84375 -1.421875 31.78125 -1.421875 
Q 19.734375 -1.421875 13.25 4.234375 
Q 6.78125 9.90625 6.78125 20.515625 
Q 6.78125 27.484375 10.78125 32.3125 
Q 14.796875 37.15625 21.921875 38.8125 
z
M 18.3125 54.390625 
Q 18.3125 48.734375 21.84375 45.5625 
Q 25.390625 42.390625 31.78125 42.390625 
Q 38.140625 42.390625 41.71875 45.5625 
Q 45.3125 48.734375 45.3125 54.390625 
Q 45.3125 60.0625 41.71875 63.234375 
Q 38.140625 66.40625 31.78125 66.40625 
Q 25.390625 66.40625 21.84375 63.234375 
Q 18.3125 60.0625 18.3125 54.390625 
z
" id="DejaVuSans-56"/>
       </defs>
       <use xlink:href="#DejaVuSans-56"/>
      </g>
     </g>
    </g>
    <g id="xtick_9">
     <g id="line2d_9">
      <defs>
       <path d="M 0 0 
L 0 2 
" id="m079dc3d45c" style="stroke:#000000;stroke-width:0.6;"/>
      </defs>
      <g>
       <use style="stroke:#000000;stroke-width:0.6;" x="55.29641" xlink:href="#m079dc3d45c" y="292.411475"/>
      </g>
     </g>
    </g>
    <g id="xtick_10">
     <g id="line2d_10">
      <g>
       <use style="stroke:#000000;stroke-width:0.6;" x="65.794359" xlink:href="#m079dc3d45c" y="292.411475"/>
      </g>
     </g>
    </g>
    <g id="xtick_11">
     <g id="line2d_11">
      <g>
       <use style="stroke:#000000;stroke-width:0.6;" x="76.292308" xlink:href="#m079dc3d45c" y="292.411475"/>
      </g>
     </g>
    </g>
    <g id="xtick_12">
     <g id="line2d_12">
      <g>
       <use style="stroke:#000000;stroke-width:0.6;" x="86.790256" xlink:href="#m079dc3d45c" y="292.411475"/>
      </g>
     </g>
    </g>
    <g id="xtick_13">
     <g id="line2d_13">
      <g>
       <use style="stroke:#000000;stroke-width:0.6;" x="107.786154" xlink:href="#m079dc3d45c" y="292.411475"/>
      </g>
     </g>
    </g>
    <g id="xtick_14">
     <g id="line2d_14">
      <g>
       <use style="stroke:#000000;stroke-width:0.6;" x="118.284103" xlink:href="#m079dc3d45c" y="292.411475"/>
      </g>
     </g>
    </g>
    <g id="xtick_15">
     <g id="line2d_15">
      <g>
       <use style="stroke:#000000;stroke-width:0.6;" x="128.782051" xlink:href="#m079dc3d45c" y="292.411475"/>
      </g>
     </g>
    </g>
    <g id="xtick_16">
     <g id="line2d_16">
      <g>
       <use style="stroke:#000000;stroke-width:0.6;" x="139.28" xlink:href="#m079dc3d45c" y="292.411475"/>
      </g>
     </g>
    </g>
    <g id="xtick_17">
     <g id="line2d_17">
      <g>
       <use style="stroke:#000000;stroke-width:0.6;" x="160.275897" xlink:href="#m079dc3d45c" y="292.411475"/>
      </g>
     </g>
    </g>
    <g id="xtick_18">
     <g id="line2d_18">
      <g>
       <use style="stroke:#000000;stroke-width:0.6;" x="170.773846" xlink:href="#m079dc3d45c" y="292.411475"/>
      </g>
     </g>
    </g>
    <g id="xtick_19">
     <g id="line2d_19">
      <g>
       <use style="stroke:#000000;stroke-width:0.6;" x="181.271795" xlink:href="#m079dc3d45c" y="292.411475"/>
      </g>
     </g>
    </g>
    <g id="xtick_20">
     <g id="line2d_20">
      <g>
       <use style="stroke:#000000;stroke-width:0.6;" x="191.769744" xlink:href="#m079dc3d45c" y="292.411475"/>
      </g>
     </g>
    </g>
    <g id="xtick_21">
     <g id="line2d_21">
      <g>
       <use style="stroke:#000000;stroke-width:0.6;" x="212.765641" xlink:href="#m079dc3d45c" y="292.411475"/>
      </g>
     </g>
    </g>
    <g id="xtick_22">
     <g id="line2d_22">
      <g>
       <use style="stroke:#000000;stroke-width:0.6;" x="223.26359" xlink:href="#m079dc3d45c" y="292.411475"/>
      </g>
     </g>
    </g>
    <g id="xtick_23">
     <g id="line2d_23">
      <g>
       <use style="stroke:#000000;stroke-width:0.6;" x="233.761538" xlink:href="#m079dc3d45c" y="292.411475"/>
      </g>
     </g>
    </g>
    <g id="xtick_24">
     <g id="line2d_24">
      <g>
       <use style="stroke:#000000;stroke-width:0.6;" x="244.259487" xlink:href="#m079dc3d45c" y="292.411475"/>
      </g>
     </g>
    </g>
    <g id="xtick_25">
     <g id="line2d_25">
      <g>
       <use style="stroke:#000000;stroke-width:0.6;" x="265.255385" xlink:href="#m079dc3d45c" y="292.411475"/>
      </g>
     </g>
    </g>
    <g id="xtick_26">
     <g id="line2d_26">
      <g>
       <use style="stroke:#000000;stroke-width:0.6;" x="275.753333" xlink:href="#m079dc3d45c" y="292.411475"/>
      </g>
     </g>
    </g>
    <g id="xtick_27">
     <g id="line2d_27">
      <g>
       <use style="stroke:#000000;stroke-width:0.6;" x="286.251282" xlink:href="#m079dc3d45c" y="292.411475"/>
      </g>
     </g>
    </g>
    <g id="xtick_28">
     <g id="line2d_28">
      <g>
       <use style="stroke:#000000;stroke-width:0.6;" x="296.749231" xlink:href="#m079dc3d45c" y="292.411475"/>
      </g>
     </g>
    </g>
    <g id="xtick_29">
     <g id="line2d_29">
      <g>
       <use style="stroke:#000000;stroke-width:0.6;" x="317.745128" xlink:href="#m079dc3d45c" y="292.411475"/>
      </g>
     </g>
    </g>
    <g id="xtick_30">
     <g id="line2d_30">
      <g>
       <use style="stroke:#000000;stroke-width:0.6;" x="328.243077" xlink:href="#m079dc3d45c" y="292.411475"/>
      </g>
     </g>
    </g>
    <g id="xtick_31">
     <g id="line2d_31">
      <g>
       <use style="stroke:#000000;stroke-width:0.6;" x="338.741026" xlink:href="#m079dc3d45c" y="292.411475"/>
      </g>
     </g>
    </g>
    <g id="xtick_32">
     <g id="line2d_32">
      <g>
       <use style="stroke:#000000;stroke-width:0.6;" x="349.238974" xlink:href="#m079dc3d45c" y="292.411475"/>
      </g>
     </g>
    </g>
    <g id="xtick_33">
     <g id="line2d_33">
      <g>
       <use style="stroke:#000000;stroke-width:0.6;" x="370.234872" xlink:href="#m079dc3d45c" y="292.411475"/>
      </g>
     </g>
    </g>
    <g id="xtick_34">
     <g id="line2d_34">
      <g>
       <use style="stroke:#000000;stroke-width:0.6;" x="380.732821" xlink:href="#m079dc3d45c" y="292.411475"/>
      </g>
     </g>
    </g>
    <g id="xtick_35">
     <g id="line2d_35">
      <g>
       <use style="stroke:#000000;stroke-width:0.6;" x="391.230769" xlink:href="#m079dc3d45c" y="292.411475"/>
      </g>
     </g>
    </g>
    <g id="xtick_36">
     <g id="line2d_36">
      <g>
       <use style="stroke:#000000;stroke-width:0.6;" x="401.728718" xlink:href="#m079dc3d45c" y="292.411475"/>
      </g>
     </g>
    </g>
    <g id="xtick_37">
     <g id="line2d_37">
      <g>
       <use style="stroke:#000000;stroke-width:0.6;" x="422.724615" xlink:href="#m079dc3d45c" y="292.411475"/>
      </g>
     </g>
    </g>
    <g id="xtick_38">
     <g id="line2d_38">
      <g>
       <use style="stroke:#000000;stroke-width:0.6;" x="433.222564" xlink:href="#m079dc3d45c" y="292.411475"/>
      </g>
     </g>
    </g>
    <g id="xtick_39">
     <g id="line2d_39">
      <g>
       <use style="stroke:#000000;stroke-width:0.6;" x="443.720513" xlink:href="#m079dc3d45c" y="292.411475"/>
      </g>
     </g>
    </g>
   </g>
   <g id="matplotlib.axis_2">
    <g id="ytick_1">
     <g id="line2d_40">
      <defs>
       <path d="M 0 0 
L -3.5 0 
" id="m8f875399e0" style="stroke:#000000;stroke-width:0.8;"/>
      </defs>
      <g>
       <use style="stroke:#000000;stroke-width:0.8;" x="26.925" xlink:href="#m8f875399e0" y="292.411475"/>
      </g>
     </g>
     <g id="text_9">
      <!-- 0 -->
      <g transform="translate(13.5625 296.210694)scale(0.1 -0.1)">
       <defs>
        <path d="M 31.78125 66.40625 
Q 24.171875 66.40625 20.328125 58.90625 
Q 16.5 51.421875 16.5 36.375 
Q 16.5 21.390625 20.328125 13.890625 
Q 24.171875 6.390625 31.78125 6.390625 
Q 39.453125 6.390625 43.28125 13.890625 
Q 47.125 21.390625 47.125 36.375 
Q 47.125 51.421875 43.28125 58.90625 
Q 39.453125 66.40625 31.78125 66.40625 
z
M 31.78125 74.21875 
Q 44.046875 74.21875 50.515625 64.515625 
Q 56.984375 54.828125 56.984375 36.375 
Q 56.984375 17.96875 50.515625 8.265625 
Q 44.046875 -1.421875 31.78125 -1.421875 
Q 19.53125 -1.421875 13.0625 8.265625 
Q 6.59375 17.96875 6.59375 36.375 
Q 6.59375 54.828125 13.0625 64.515625 
Q 19.53125 74.21875 31.78125 74.21875 
z
" id="DejaVuSans-48"/>
       </defs>
       <use xlink:href="#DejaVuSans-48"/>
      </g>
     </g>
    </g>
    <g id="ytick_2">
     <g id="line2d_41">
      <g>
       <use style="stroke:#000000;stroke-width:0.8;" x="26.925" xlink:href="#m8f875399e0" y="252.209724"/>
      </g>
     </g>
     <g id="text_10">
      <!-- 10 -->
      <g transform="translate(7.2 256.008943)scale(0.1 -0.1)">
       <use xlink:href="#DejaVuSans-49"/>
       <use x="63.623047" xlink:href="#DejaVuSans-48"/>
      </g>
     </g>
    </g>
    <g id="ytick_3">
     <g id="line2d_42">
      <g>
       <use style="stroke:#000000;stroke-width:0.8;" x="26.925" xlink:href="#m8f875399e0" y="212.007973"/>
      </g>
     </g>
     <g id="text_11">
      <!-- 20 -->
      <g transform="translate(7.2 215.807192)scale(0.1 -0.1)">
       <use xlink:href="#DejaVuSans-50"/>
       <use x="63.623047" xlink:href="#DejaVuSans-48"/>
      </g>
     </g>
    </g>
    <g id="ytick_4">
     <g id="line2d_43">
      <g>
       <use style="stroke:#000000;stroke-width:0.8;" x="26.925" xlink:href="#m8f875399e0" y="171.806222"/>
      </g>
     </g>
     <g id="text_12">
      <!-- 30 -->
      <g transform="translate(7.2 175.605441)scale(0.1 -0.1)">
       <use xlink:href="#DejaVuSans-51"/>
       <use x="63.623047" xlink:href="#DejaVuSans-48"/>
      </g>
     </g>
    </g>
    <g id="ytick_5">
     <g id="line2d_44">
      <g>
       <use style="stroke:#000000;stroke-width:0.8;" x="26.925" xlink:href="#m8f875399e0" y="131.604471"/>
      </g>
     </g>
     <g id="text_13">
      <!-- 40 -->
      <g transform="translate(7.2 135.40369)scale(0.1 -0.1)">
       <use xlink:href="#DejaVuSans-52"/>
       <use x="63.623047" xlink:href="#DejaVuSans-48"/>
      </g>
     </g>
    </g>
    <g id="ytick_6">
     <g id="line2d_45">
      <g>
       <use style="stroke:#000000;stroke-width:0.8;" x="26.925" xlink:href="#m8f875399e0" y="91.40272"/>
      </g>
     </g>
     <g id="text_14">
      <!-- 50 -->
      <g transform="translate(7.2 95.201939)scale(0.1 -0.1)">
       <use xlink:href="#DejaVuSans-53"/>
       <use x="63.623047" xlink:href="#DejaVuSans-48"/>
      </g>
     </g>
    </g>
    <g id="ytick_7">
     <g id="line2d_46">
      <g>
       <use style="stroke:#000000;stroke-width:0.8;" x="26.925" xlink:href="#m8f875399e0" y="51.20097"/>
      </g>
     </g>
     <g id="text_15">
      <!-- 60 -->
      <g transform="translate(7.2 55.000188)scale(0.1 -0.1)">
       <use xlink:href="#DejaVuSans-54"/>
       <use x="63.623047" xlink:href="#DejaVuSans-48"/>
      </g>
     </g>
    </g>
    <g id="ytick_8">
     <g id="line2d_47">
      <g>
       <use style="stroke:#000000;stroke-width:0.8;" x="26.925" xlink:href="#m8f875399e0" y="10.999219"/>
      </g>
     </g>
     <g id="text_16">
      <!-- 70 -->
      <g transform="translate(7.2 14.798437)scale(0.1 -0.1)">
       <use xlink:href="#DejaVuSans-55"/>
       <use x="63.623047" xlink:href="#DejaVuSans-48"/>
      </g>
     </g>
    </g>
    <g id="ytick_9">
     <g id="line2d_48">
      <defs>
       <path d="M 0 0 
L -2 0 
" id="me4f562234f" style="stroke:#000000;stroke-width:0.6;"/>
      </defs>
      <g>
       <use style="stroke:#000000;stroke-width:0.6;" x="26.925" xlink:href="#me4f562234f" y="324.572875"/>
      </g>
     </g>
    </g>
    <g id="ytick_10">
     <g id="line2d_49">
      <g>
       <use style="stroke:#000000;stroke-width:0.6;" x="26.925" xlink:href="#me4f562234f" y="316.532525"/>
      </g>
     </g>
    </g>
    <g id="ytick_11">
     <g id="line2d_50">
      <g>
       <use style="stroke:#000000;stroke-width:0.6;" x="26.925" xlink:href="#me4f562234f" y="308.492175"/>
      </g>
     </g>
    </g>
    <g id="ytick_12">
     <g id="line2d_51">
      <g>
       <use style="stroke:#000000;stroke-width:0.6;" x="26.925" xlink:href="#me4f562234f" y="300.451825"/>
      </g>
     </g>
    </g>
    <g id="ytick_13">
     <g id="line2d_52">
      <g>
       <use style="stroke:#000000;stroke-width:0.6;" x="26.925" xlink:href="#me4f562234f" y="284.371125"/>
      </g>
     </g>
    </g>
    <g id="ytick_14">
     <g id="line2d_53">
      <g>
       <use style="stroke:#000000;stroke-width:0.6;" x="26.925" xlink:href="#me4f562234f" y="276.330774"/>
      </g>
     </g>
    </g>
    <g id="ytick_15">
     <g id="line2d_54">
      <g>
       <use style="stroke:#000000;stroke-width:0.6;" x="26.925" xlink:href="#me4f562234f" y="268.290424"/>
      </g>
     </g>
    </g>
    <g id="ytick_16">
     <g id="line2d_55">
      <g>
       <use style="stroke:#000000;stroke-width:0.6;" x="26.925" xlink:href="#me4f562234f" y="260.250074"/>
      </g>
     </g>
    </g>
    <g id="ytick_17">
     <g id="line2d_56">
      <g>
       <use style="stroke:#000000;stroke-width:0.6;" x="26.925" xlink:href="#me4f562234f" y="244.169374"/>
      </g>
     </g>
    </g>
    <g id="ytick_18">
     <g id="line2d_57">
      <g>
       <use style="stroke:#000000;stroke-width:0.6;" x="26.925" xlink:href="#me4f562234f" y="236.129024"/>
      </g>
     </g>
    </g>
    <g id="ytick_19">
     <g id="line2d_58">
      <g>
       <use style="stroke:#000000;stroke-width:0.6;" x="26.925" xlink:href="#me4f562234f" y="228.088673"/>
      </g>
     </g>
    </g>
    <g id="ytick_20">
     <g id="line2d_59">
      <g>
       <use style="stroke:#000000;stroke-width:0.6;" x="26.925" xlink:href="#me4f562234f" y="220.048323"/>
      </g>
     </g>
    </g>
    <g id="ytick_21">
     <g id="line2d_60">
      <g>
       <use style="stroke:#000000;stroke-width:0.6;" x="26.925" xlink:href="#me4f562234f" y="203.967623"/>
      </g>
     </g>
    </g>
    <g id="ytick_22">
     <g id="line2d_61">
      <g>
       <use style="stroke:#000000;stroke-width:0.6;" x="26.925" xlink:href="#me4f562234f" y="195.927273"/>
      </g>
     </g>
    </g>
    <g id="ytick_23">
     <g id="line2d_62">
      <g>
       <use style="stroke:#000000;stroke-width:0.6;" x="26.925" xlink:href="#me4f562234f" y="187.886923"/>
      </g>
     </g>
    </g>
    <g id="ytick_24">
     <g id="line2d_63">
      <g>
       <use style="stroke:#000000;stroke-width:0.6;" x="26.925" xlink:href="#me4f562234f" y="179.846572"/>
      </g>
     </g>
    </g>
    <g id="ytick_25">
     <g id="line2d_64">
      <g>
       <use style="stroke:#000000;stroke-width:0.6;" x="26.925" xlink:href="#me4f562234f" y="163.765872"/>
      </g>
     </g>
    </g>
    <g id="ytick_26">
     <g id="line2d_65">
      <g>
       <use style="stroke:#000000;stroke-width:0.6;" x="26.925" xlink:href="#me4f562234f" y="155.725522"/>
      </g>
     </g>
    </g>
    <g id="ytick_27">
     <g id="line2d_66">
      <g>
       <use style="stroke:#000000;stroke-width:0.6;" x="26.925" xlink:href="#me4f562234f" y="147.685172"/>
      </g>
     </g>
    </g>
    <g id="ytick_28">
     <g id="line2d_67">
      <g>
       <use style="stroke:#000000;stroke-width:0.6;" x="26.925" xlink:href="#me4f562234f" y="139.644822"/>
      </g>
     </g>
    </g>
    <g id="ytick_29">
     <g id="line2d_68">
      <g>
       <use style="stroke:#000000;stroke-width:0.6;" x="26.925" xlink:href="#me4f562234f" y="123.564121"/>
      </g>
     </g>
    </g>
    <g id="ytick_30">
     <g id="line2d_69">
      <g>
       <use style="stroke:#000000;stroke-width:0.6;" x="26.925" xlink:href="#me4f562234f" y="115.523771"/>
      </g>
     </g>
    </g>
    <g id="ytick_31">
     <g id="line2d_70">
      <g>
       <use style="stroke:#000000;stroke-width:0.6;" x="26.925" xlink:href="#me4f562234f" y="107.483421"/>
      </g>
     </g>
    </g>
    <g id="ytick_32">
     <g id="line2d_71">
      <g>
       <use style="stroke:#000000;stroke-width:0.6;" x="26.925" xlink:href="#me4f562234f" y="99.443071"/>
      </g>
     </g>
    </g>
    <g id="ytick_33">
     <g id="line2d_72">
      <g>
       <use style="stroke:#000000;stroke-width:0.6;" x="26.925" xlink:href="#me4f562234f" y="83.36237"/>
      </g>
     </g>
    </g>
    <g id="ytick_34">
     <g id="line2d_73">
      <g>
       <use style="stroke:#000000;stroke-width:0.6;" x="26.925" xlink:href="#me4f562234f" y="75.32202"/>
      </g>
     </g>
    </g>
    <g id="ytick_35">
     <g id="line2d_74">
      <g>
       <use style="stroke:#000000;stroke-width:0.6;" x="26.925" xlink:href="#me4f562234f" y="67.28167"/>
      </g>
     </g>
    </g>
    <g id="ytick_36">
     <g id="line2d_75">
      <g>
       <use style="stroke:#000000;stroke-width:0.6;" x="26.925" xlink:href="#me4f562234f" y="59.24132"/>
      </g>
     </g>
    </g>
    <g id="ytick_37">
     <g id="line2d_76">
      <g>
       <use style="stroke:#000000;stroke-width:0.6;" x="26.925" xlink:href="#me4f562234f" y="43.160619"/>
      </g>
     </g>
    </g>
    <g id="ytick_38">
     <g id="line2d_77">
      <g>
       <use style="stroke:#000000;stroke-width:0.6;" x="26.925" xlink:href="#me4f562234f" y="35.120269"/>
      </g>
     </g>
    </g>
    <g id="ytick_39">
     <g id="line2d_78">
      <g>
       <use style="stroke:#000000;stroke-width:0.6;" x="26.925" xlink:href="#me4f562234f" y="27.079919"/>
      </g>
     </g>
    </g>
    <g id="ytick_40">
     <g id="line2d_79">
      <g>
       <use style="stroke:#000000;stroke-width:0.6;" x="26.925" xlink:href="#me4f562234f" y="19.039569"/>
      </g>
     </g>
    </g>
   </g>
   <g id="line2d_80">
    <path clip-path="url(#p6f6e050d69)" d="M 97.288205 292.411475 
L 97.288205 191.907098 
" style="fill:none;stroke:#000000;stroke-linecap:square;"/>
   </g>
   <g id="line2d_81">
    <path clip-path="url(#p6f6e050d69)" d="M 412.226667 292.411475 
L 412.226667 71.301845 
" style="fill:none;stroke:#000000;stroke-linecap:square;"/>
   </g>
   <g id="line2d_82">
    <path clip-path="url(#p6f6e050d69)" d="M 44.798462 324.572875 
L 49.812165 308.113595 
L 54.601 293.195146 
L 59.279381 279.360238 
L 63.889976 266.424047 
L 68.356031 254.538804 
L 72.503385 244.057333 
L 77.159709 232.912036 
L 81.448646 223.21473 
L 85.810603 213.897636 
L 90.121602 205.216232 
L 94.440605 197.030456 
L 98.430747 189.911538 
L 102.444959 183.16855 
L 106.416064 176.9008 
L 110.654069 170.641926 
L 114.352011 165.533757 
L 118.585194 160.078854 
L 122.572289 155.313484 
L 126.455897 151.008846 
L 130.404225 146.963286 
L 134.111791 143.458971 
L 137.847961 140.207414 
L 141.603048 137.213642 
L 145.461595 134.414524 
L 149.548806 131.745331 
L 153.621532 129.377197 
L 157.469946 127.396791 
L 161.388832 125.627024 
L 165.782148 123.926872 
L 169.730981 122.643568 
L 173.446086 121.6383 
L 178.018624 120.657086 
L 182.584346 119.944354 
L 186.830218 119.50707 
L 191.439853 119.263151 
L 195.941582 119.241651 
L 200.110271 119.399363 
L 205.642081 119.851165 
L 211.259709 120.566372 
L 216.31794 121.40709 
L 222.063622 122.559876 
L 229.163812 124.22967 
L 236.446259 126.165354 
L 246.359935 129.048284 
L 273.484044 137.158977 
L 281.05286 139.154877 
L 288.554006 140.885253 
L 295.247975 142.163744 
L 301.336446 143.065103 
L 306.493505 143.604798 
L 310.985174 143.888673 
L 315.521146 143.983281 
L 319.922232 143.875907 
L 324.324837 143.557859 
L 329.051921 142.965603 
L 333.55249 142.144677 
L 337.876035 141.10553 
L 342.14916 139.823919 
L 345.877924 138.488569 
L 350.012893 136.76029 
L 353.943385 134.865825 
L 357.740468 132.793061 
L 361.750962 130.334694 
L 365.768379 127.584304 
L 369.554395 124.719014 
L 373.202975 121.698149 
L 377.104342 118.176829 
L 381.147898 114.19926 
L 384.87305 110.230119 
L 388.856594 105.652227 
L 392.738774 100.849415 
L 396.747506 95.525933 
L 400.85635 89.674457 
L 404.757439 83.73831 
L 409.00031 76.849513 
L 413.281804 69.428501 
L 417.581265 61.488587 
L 421.605533 53.602289 
L 426.062827 44.340908 
L 430.558904 34.423815 
L 435.072273 23.872398 
L 438.471538 15.521916 
L 438.471538 15.521916 
" style="fill:none;stroke:#0000ff;stroke-linecap:square;stroke-width:3;"/>
   </g>
   <g id="line2d_83">
    <path clip-path="url(#p6f6e050d69)" d="M 307.247179 292.411475 
L 307.247179 143.664997 
" style="fill:none;stroke:#8888ff;stroke-linecap:square;"/>
   </g>
   <g id="patch_4">
    <path d="M 26.925 330.753895 
L 26.925 9.340897 
" style="fill:none;stroke:#000000;stroke-linecap:square;stroke-linejoin:miter;stroke-width:0.8;"/>
   </g>
   <g id="patch_5">
    <path d="M 36.925 292.411475 
L 446.345 292.411475 
" style="fill:none;stroke:#000000;stroke-linecap:square;stroke-linejoin:miter;stroke-width:0.8;"/>
   </g>
   <g id="text_17">
    <!-- $\mathrm{Area}=\int_{a}^b f(x) dx$ -->
    <g transform="translate(142.027692 77.781845)scale(0.16 -0.16)">
     <defs>
      <path d="M 3.21875 0 
L 3.21875 3.515625 
Q 12.15625 3.515625 14.203125 9.421875 
L 35.203125 70.515625 
Q 35.5 71.578125 36.8125 71.578125 
L 38.09375 71.578125 
Q 39.40625 71.578125 39.703125 70.515625 
L 61.625 6.6875 
Q 62.546875 4.59375 65.15625 4.046875 
Q 67.78125 3.515625 71.6875 3.515625 
L 71.6875 0 
L 43.796875 0 
L 43.796875 3.515625 
Q 52.09375 3.515625 52.09375 6.203125 
L 52.09375 6.6875 
L 46.6875 22.3125 
L 22.40625 22.3125 
L 17.921875 9.421875 
Q 17.828125 9.078125 17.828125 8.40625 
Q 17.828125 5.90625 20.1875 4.703125 
Q 22.5625 3.515625 25.296875 3.515625 
L 25.296875 0 
z
M 23.578125 25.78125 
L 45.515625 25.78125 
L 34.515625 57.71875 
z
" id="Cmr10-65"/>
      <path d="M 2.59375 0 
L 2.59375 3.515625 
Q 6 3.515625 8.203125 4.046875 
Q 10.40625 4.59375 10.40625 6.6875 
L 10.40625 33.984375 
Q 10.40625 36.671875 9.59375 37.859375 
Q 8.796875 39.0625 7.28125 39.328125 
Q 5.765625 39.59375 2.59375 39.59375 
L 2.59375 43.109375 
L 16.890625 44.1875 
L 16.890625 34.421875 
Q 18.5 38.765625 21.484375 41.46875 
Q 24.46875 44.1875 28.71875 44.1875 
Q 31.6875 44.1875 34.03125 42.421875 
Q 36.375 40.671875 36.375 37.796875 
Q 36.375 35.984375 35.078125 34.640625 
Q 33.796875 33.296875 31.890625 33.296875 
Q 30.03125 33.296875 28.703125 34.609375 
Q 27.390625 35.9375 27.390625 37.796875 
Q 27.390625 40.484375 29.296875 41.609375 
L 28.71875 41.609375 
Q 24.65625 41.609375 22.09375 38.671875 
Q 19.53125 35.75 18.453125 31.390625 
Q 17.390625 27.046875 17.390625 23.09375 
L 17.390625 6.6875 
Q 17.390625 3.515625 27.09375 3.515625 
L 27.09375 0 
z
" id="Cmr10-114"/>
      <path d="M 24.90625 -1.125 
Q 18.796875 -1.125 13.6875 2.078125 
Q 8.59375 5.28125 5.6875 10.625 
Q 2.78125 15.96875 2.78125 21.921875 
Q 2.78125 27.78125 5.4375 33.046875 
Q 8.109375 38.328125 12.859375 41.578125 
Q 17.625 44.828125 23.484375 44.828125 
Q 28.078125 44.828125 31.46875 43.28125 
Q 34.859375 41.75 37.0625 39.015625 
Q 39.265625 36.28125 40.375 32.5625 
Q 41.5 28.859375 41.5 24.421875 
Q 41.5 23.09375 40.484375 23.09375 
L 11.53125 23.09375 
L 11.53125 22.015625 
Q 11.53125 13.71875 14.875 7.765625 
Q 18.21875 1.8125 25.78125 1.8125 
Q 28.859375 1.8125 31.46875 3.171875 
Q 34.078125 4.546875 36 6.984375 
Q 37.9375 9.421875 38.625 12.203125 
Q 38.71875 12.546875 38.984375 12.8125 
Q 39.265625 13.09375 39.59375 13.09375 
L 40.484375 13.09375 
Q 41.5 13.09375 41.5 11.8125 
Q 40.09375 6.15625 35.40625 2.515625 
Q 30.71875 -1.125 24.90625 -1.125 
z
M 11.625 25.59375 
L 34.421875 25.59375 
Q 34.421875 29.34375 33.375 33.203125 
Q 32.328125 37.0625 29.875 39.625 
Q 27.4375 42.1875 23.484375 42.1875 
Q 17.828125 42.1875 14.71875 36.890625 
Q 11.625 31.59375 11.625 25.59375 
z
" id="Cmr10-101"/>
      <path d="M 4 9.8125 
Q 4 15.765625 8.6875 19.5 
Q 13.375 23.25 19.9375 24.78125 
Q 26.515625 26.3125 32.421875 26.3125 
L 32.421875 30.421875 
Q 32.421875 33.296875 31.15625 36 
Q 29.890625 38.71875 27.484375 40.453125 
Q 25.09375 42.1875 22.21875 42.1875 
Q 15.578125 42.1875 12.109375 39.203125 
Q 14.015625 39.203125 15.25 37.765625 
Q 16.5 36.328125 16.5 34.421875 
Q 16.5 32.421875 15.078125 31 
Q 13.671875 29.59375 11.71875 29.59375 
Q 9.71875 29.59375 8.296875 31 
Q 6.890625 32.421875 6.890625 34.421875 
Q 6.890625 39.703125 11.671875 42.265625 
Q 16.453125 44.828125 22.21875 44.828125 
Q 26.265625 44.828125 30.359375 43.09375 
Q 34.46875 41.359375 37.078125 38.125 
Q 39.703125 34.90625 39.703125 30.609375 
L 39.703125 8.109375 
Q 39.703125 6.15625 40.53125 4.515625 
Q 41.359375 2.875 43.109375 2.875 
Q 44.78125 2.875 45.578125 4.53125 
Q 46.390625 6.203125 46.390625 8.109375 
L 46.390625 14.5 
L 49.3125 14.5 
L 49.3125 8.109375 
Q 49.3125 5.859375 48.140625 3.828125 
Q 46.96875 1.8125 44.984375 0.609375 
Q 43.015625 -0.59375 40.71875 -0.59375 
Q 37.796875 -0.59375 35.671875 1.671875 
Q 33.546875 3.953125 33.296875 7.078125 
Q 31.453125 3.328125 27.828125 1.09375 
Q 24.21875 -1.125 20.125 -1.125 
Q 16.3125 -1.125 12.625 0 
Q 8.9375 1.125 6.46875 3.53125 
Q 4 5.953125 4 9.8125 
z
M 12.109375 9.8125 
Q 12.109375 6.296875 14.6875 3.90625 
Q 17.28125 1.515625 20.796875 1.515625 
Q 24.03125 1.515625 26.65625 3.125 
Q 29.296875 4.734375 30.859375 7.515625 
Q 32.421875 10.296875 32.421875 13.375 
L 32.421875 23.78125 
Q 27.875 23.78125 23.109375 22.28125 
Q 18.359375 20.796875 15.234375 17.625 
Q 12.109375 14.453125 12.109375 9.8125 
z
" id="Cmr10-97"/>
      <path d="M 7.515625 13.28125 
Q 6.6875 13.28125 6.140625 13.90625 
Q 5.609375 14.546875 5.609375 15.28125 
Q 5.609375 16.109375 6.140625 16.6875 
Q 6.6875 17.28125 7.515625 17.28125 
L 70.3125 17.28125 
Q 71.046875 17.28125 71.578125 16.6875 
Q 72.125 16.109375 72.125 15.28125 
Q 72.125 14.546875 71.578125 13.90625 
Q 71.046875 13.28125 70.3125 13.28125 
z
M 7.515625 32.71875 
Q 6.6875 32.71875 6.140625 33.296875 
Q 5.609375 33.890625 5.609375 34.71875 
Q 5.609375 35.453125 6.140625 36.078125 
Q 6.6875 36.71875 7.515625 36.71875 
L 70.3125 36.71875 
Q 71.046875 36.71875 71.578125 36.078125 
Q 72.125 35.453125 72.125 34.71875 
Q 72.125 33.890625 71.578125 33.296875 
Q 71.046875 32.71875 70.3125 32.71875 
z
" id="Cmr10-61"/>
      <path d="M 10.59375 -217.09375 
Q 13.09375 -219.578125 16.703125 -219.578125 
Q 20.3125 -219.578125 23.28125 -214.625 
Q 26.265625 -209.671875 28.515625 -202.25 
Q 30.765625 -194.828125 31.8125 -189.8125 
Q 32.859375 -184.8125 34.421875 -176.90625 
Q 35.84375 -169.53125 37.15625 -162.109375 
Q 38.484375 -154.6875 39.875 -146.3125 
Q 41.265625 -137.9375 42.796875 -129.3125 
Q 44.34375 -120.703125 46.296875 -110.984375 
Q 48.921875 -98.1875 50.0625 -92.6875 
Q 51.21875 -87.203125 53.5625 -76.828125 
Q 55.90625 -66.453125 56.65625 -63.15625 
Q 57.421875 -59.859375 60.984375 -45.125 
L 62.3125 -39.890625 
Q 64.546875 -31.109375 65.765625 -26.59375 
Q 67 -22.078125 69.5625 -15.546875 
Q 72.125 -9.03125 75.578125 -4.515625 
Q 79.046875 0 83.203125 0 
Q 86.140625 0 88.640625 -1.3125 
Q 91.15625 -2.640625 92.71875 -4.9375 
Q 94.28125 -7.234375 94.28125 -10.203125 
Q 94.28125 -12.359375 92.859375 -13.765625 
Q 91.453125 -15.1875 89.3125 -15.1875 
Q 87.109375 -15.1875 85.640625 -13.765625 
Q 84.1875 -12.359375 84.1875 -10.203125 
Q 84.1875 -8.015625 85.640625 -6.546875 
Q 87.109375 -5.078125 89.3125 -5.078125 
Q 86.71875 -2.59375 83.296875 -2.59375 
Q 81.453125 -2.59375 79.21875 -8 
Q 77 -13.421875 75.125 -20.765625 
Q 73.25 -28.125 72.234375 -33.03125 
Q 71.234375 -37.9375 69.828125 -45.3125 
Q 68.171875 -53.65625 67.0625 -59.859375 
Q 65.96875 -66.0625 64.40625 -75.1875 
Q 62.84375 -84.328125 61.34375 -92.578125 
Q 59.859375 -100.828125 57.8125 -111.1875 
Q 56.5 -117.71875 54 -129.5625 
Q 51.515625 -141.40625 50.703125 -144.96875 
Q 49.90625 -148.53125 46.609375 -162.390625 
Q 43.3125 -176.265625 43.109375 -177.09375 
L 41.890625 -181.6875 
Q 39.3125 -192.28125 36.6875 -200.3125 
Q 34.078125 -208.34375 29.015625 -215.28125 
Q 23.96875 -222.21875 16.703125 -222.21875 
Q 12.359375 -222.21875 8.984375 -219.28125 
Q 5.609375 -216.359375 5.609375 -212.109375 
Q 5.609375 -209.90625 7.078125 -208.4375 
Q 8.546875 -206.984375 10.6875 -206.984375 
Q 12.109375 -206.984375 13.25 -207.65625 
Q 14.40625 -208.34375 15.0625 -209.515625 
Q 15.71875 -210.6875 15.71875 -212.109375 
Q 15.71875 -214.265625 14.25 -215.671875 
Q 12.796875 -217.09375 10.59375 -217.09375 
z
" id="Cmex10-90"/>
      <path d="M 17.28125 -1.125 
Q 11.234375 -1.125 7.859375 3.609375 
Q 4.5 8.34375 4.5 14.703125 
Q 4.5 15.625 4.953125 18.328125 
Q 5.421875 21.046875 5.421875 21.6875 
L 15.09375 60.5 
Q 15.484375 62.203125 15.578125 63.1875 
Q 15.578125 64.796875 9.078125 64.796875 
Q 8.109375 64.796875 8.109375 66.109375 
Q 8.15625 66.359375 8.328125 66.984375 
Q 8.5 67.625 8.765625 67.96875 
Q 9.03125 68.3125 9.515625 68.3125 
L 23 69.390625 
Q 24.21875 69.390625 24.21875 68.109375 
L 16.796875 38.625 
Q 22.46875 44.1875 28.21875 44.1875 
Q 32.46875 44.1875 35.515625 41.9375 
Q 38.578125 39.703125 40.09375 36.03125 
Q 41.609375 32.375 41.609375 28.21875 
Q 41.609375 23.390625 39.71875 18.234375 
Q 37.84375 13.09375 34.515625 8.671875 
Q 31.203125 4.25 26.75 1.5625 
Q 22.3125 -1.125 17.28125 -1.125 
z
M 17.484375 1.515625 
Q 20.90625 1.515625 23.875 4.375 
Q 26.859375 7.234375 28.71875 10.796875 
Q 30.71875 14.796875 32.453125 21.65625 
Q 34.1875 28.515625 34.1875 32.625 
Q 34.1875 36.1875 32.6875 38.890625 
Q 31.203125 41.609375 27.984375 41.609375 
Q 24.359375 41.609375 21.0625 38.9375 
Q 17.78125 36.28125 15.28125 32.625 
L 12.5 21.296875 
Q 10.890625 14.984375 10.796875 11.1875 
Q 10.796875 7.421875 12.421875 4.46875 
Q 14.0625 1.515625 17.484375 1.515625 
z
" id="Cmmi10-98"/>
      <path d="M 17.390625 -1.125 
Q 11.078125 -1.125 7.4375 3.640625 
Q 3.8125 8.40625 3.8125 14.890625 
Q 3.8125 21.296875 7.125 28.171875 
Q 10.453125 35.0625 16.09375 39.625 
Q 21.734375 44.1875 28.21875 44.1875 
Q 31.203125 44.1875 33.546875 42.578125 
Q 35.890625 40.96875 37.203125 38.1875 
Q 38.328125 42.1875 41.609375 42.1875 
Q 42.875 42.1875 43.71875 41.421875 
Q 44.578125 40.671875 44.578125 39.40625 
Q 44.578125 39.109375 44.546875 38.953125 
Q 44.53125 38.8125 44.484375 38.625 
L 37.5 10.6875 
Q 36.8125 7.71875 36.8125 5.8125 
Q 36.8125 1.515625 39.703125 1.515625 
Q 42.828125 1.515625 44.453125 5.484375 
Q 46.09375 9.46875 47.21875 14.703125 
Q 47.40625 15.28125 48 15.28125 
L 49.21875 15.28125 
Q 49.609375 15.28125 49.84375 14.9375 
Q 50.09375 14.59375 50.09375 14.3125 
Q 48.34375 7.328125 46.265625 3.09375 
Q 44.1875 -1.125 39.5 -1.125 
Q 36.140625 -1.125 33.546875 0.84375 
Q 30.953125 2.828125 30.328125 6.109375 
Q 23.875 -1.125 17.390625 -1.125 
z
M 17.484375 1.515625 
Q 21.09375 1.515625 24.484375 4.21875 
Q 27.875 6.9375 30.328125 10.59375 
Q 30.421875 10.6875 30.421875 10.890625 
L 35.796875 32.625 
L 35.890625 32.90625 
Q 35.296875 36.46875 33.3125 39.03125 
Q 31.34375 41.609375 27.984375 41.609375 
Q 24.609375 41.609375 21.703125 38.84375 
Q 18.796875 36.078125 16.796875 32.328125 
Q 14.84375 28.328125 13.0625 21.34375 
Q 11.28125 14.359375 11.28125 10.5 
Q 11.28125 7.03125 12.765625 4.265625 
Q 14.265625 1.515625 17.484375 1.515625 
z
" id="Cmmi10-97"/>
      <path d="M 9.71875 -16.5 
Q 11.578125 -17.921875 14.203125 -17.921875 
Q 17.78125 -17.921875 20.015625 -10.015625 
Q 20.953125 -6.203125 25.09375 15.09375 
L 29.6875 39.59375 
L 21.09375 39.59375 
Q 20.125 39.59375 20.125 40.921875 
Q 20.515625 43.109375 21.390625 43.109375 
L 30.328125 43.109375 
L 31.5 49.609375 
Q 32.078125 52.640625 32.5625 54.8125 
Q 33.0625 56.984375 33.625 58.828125 
Q 34.1875 60.6875 35.296875 62.984375 
Q 37.015625 66.265625 39.921875 68.390625 
Q 42.828125 70.515625 46.1875 70.515625 
Q 48.390625 70.515625 50.46875 69.703125 
Q 52.546875 68.890625 53.859375 67.28125 
Q 55.171875 65.671875 55.171875 63.484375 
Q 55.171875 60.9375 53.484375 59.046875 
Q 51.8125 57.171875 49.421875 57.171875 
Q 47.796875 57.171875 46.65625 58.171875 
Q 45.515625 59.1875 45.515625 60.796875 
Q 45.515625 62.984375 47 64.625 
Q 48.484375 66.265625 50.6875 66.5 
Q 48.828125 67.921875 46.09375 67.921875 
Q 44.578125 67.921875 43.234375 66.5 
Q 41.890625 65.09375 41.5 63.484375 
Q 40.875 60.9375 38.71875 49.703125 
L 37.5 43.109375 
L 47.796875 43.109375 
Q 48.78125 43.109375 48.78125 41.796875 
Q 48.734375 41.546875 48.578125 40.9375 
Q 48.4375 40.328125 48.171875 39.953125 
Q 47.90625 39.59375 47.515625 39.59375 
L 36.8125 39.59375 
L 32.171875 15.1875 
Q 31.296875 9.859375 30.140625 4.359375 
Q 29 -1.125 26.921875 -6.90625 
Q 24.859375 -12.703125 21.625 -16.609375 
Q 18.40625 -20.515625 14.015625 -20.515625 
Q 10.640625 -20.515625 7.984375 -18.578125 
Q 5.328125 -16.65625 5.328125 -13.484375 
Q 5.328125 -10.9375 6.953125 -9.046875 
Q 8.59375 -7.171875 11.078125 -7.171875 
Q 12.75 -7.171875 13.859375 -8.171875 
Q 14.984375 -9.1875 14.984375 -10.796875 
Q 14.984375 -12.9375 13.390625 -14.71875 
Q 11.8125 -16.5 9.71875 -16.5 
z
" id="Cmmi10-102"/>
      <path d="M 31 -24.8125 
Q 25.4375 -20.40625 21.40625 -14.71875 
Q 17.390625 -9.03125 14.8125 -2.578125 
Q 12.25 3.859375 10.984375 10.890625 
Q 9.71875 17.921875 9.71875 25 
Q 9.71875 32.171875 10.984375 39.203125 
Q 12.25 46.234375 14.859375 52.734375 
Q 17.484375 59.234375 21.53125 64.890625 
Q 25.59375 70.5625 31 74.8125 
Q 31 75 31.5 75 
L 32.421875 75 
Q 32.71875 75 32.953125 74.734375 
Q 33.203125 74.46875 33.203125 74.125 
Q 33.203125 73.6875 33.015625 73.484375 
Q 28.125 68.703125 24.875 63.234375 
Q 21.625 57.765625 19.640625 51.578125 
Q 17.671875 45.40625 16.796875 38.78125 
Q 15.921875 32.171875 15.921875 25 
Q 15.921875 -6.78125 32.90625 -23.296875 
Q 33.203125 -23.578125 33.203125 -24.125 
Q 33.203125 -24.359375 32.9375 -24.671875 
Q 32.671875 -25 32.421875 -25 
L 31.5 -25 
Q 31 -25 31 -24.8125 
z
" id="Cmr10-40"/>
      <path d="M 7.8125 2.875 
Q 9.578125 1.515625 12.796875 1.515625 
Q 15.921875 1.515625 18.3125 4.515625 
Q 20.703125 7.515625 21.578125 11.078125 
L 26.125 28.8125 
Q 27.203125 33.640625 27.203125 35.40625 
Q 27.203125 37.890625 25.8125 39.75 
Q 24.421875 41.609375 21.921875 41.609375 
Q 18.75 41.609375 15.96875 39.625 
Q 13.1875 37.640625 11.28125 34.59375 
Q 9.375 31.546875 8.59375 28.421875 
Q 8.40625 27.78125 7.8125 27.78125 
L 6.59375 27.78125 
Q 5.8125 27.78125 5.8125 28.71875 
L 5.8125 29 
Q 6.78125 32.71875 9.125 36.25 
Q 11.46875 39.796875 14.859375 41.984375 
Q 18.265625 44.1875 22.125 44.1875 
Q 25.78125 44.1875 28.734375 42.234375 
Q 31.6875 40.28125 32.90625 36.921875 
Q 34.625 39.984375 37.28125 42.078125 
Q 39.9375 44.1875 43.109375 44.1875 
Q 45.265625 44.1875 47.5 43.421875 
Q 49.75 42.671875 51.171875 41.109375 
Q 52.59375 39.546875 52.59375 37.203125 
Q 52.59375 34.671875 50.953125 32.828125 
Q 49.3125 31 46.78125 31 
Q 45.171875 31 44.09375 32.03125 
Q 43.015625 33.0625 43.015625 34.625 
Q 43.015625 36.71875 44.453125 38.296875 
Q 45.90625 39.890625 47.90625 40.1875 
Q 46.09375 41.609375 42.921875 41.609375 
Q 39.703125 41.609375 37.328125 38.625 
Q 34.96875 35.640625 33.984375 31.984375 
L 29.59375 14.3125 
Q 28.515625 10.296875 28.515625 7.71875 
Q 28.515625 5.171875 29.953125 3.34375 
Q 31.390625 1.515625 33.796875 1.515625 
Q 38.484375 1.515625 42.15625 5.640625 
Q 45.84375 9.765625 47.015625 14.703125 
Q 47.21875 15.28125 47.796875 15.28125 
L 49.03125 15.28125 
Q 49.421875 15.28125 49.65625 15.015625 
Q 49.90625 14.75 49.90625 14.40625 
Q 49.90625 14.3125 49.8125 14.109375 
Q 48.390625 8.15625 43.84375 3.515625 
Q 39.3125 -1.125 33.59375 -1.125 
Q 29.9375 -1.125 26.984375 0.84375 
Q 24.03125 2.828125 22.796875 6.203125 
Q 21.234375 3.265625 18.46875 1.0625 
Q 15.71875 -1.125 12.59375 -1.125 
Q 10.453125 -1.125 8.171875 -0.359375 
Q 5.90625 0.390625 4.484375 1.953125 
Q 3.078125 3.515625 3.078125 5.90625 
Q 3.078125 8.25 4.703125 10.171875 
Q 6.34375 12.109375 8.796875 12.109375 
Q 10.453125 12.109375 11.578125 11.109375 
Q 12.703125 10.109375 12.703125 8.5 
Q 12.703125 6.390625 11.296875 4.828125 
Q 9.90625 3.265625 7.8125 2.875 
z
" id="Cmmi10-120"/>
      <path d="M 6.5 -25 
Q 5.609375 -25 5.609375 -24.125 
Q 5.609375 -23.6875 5.8125 -23.484375 
Q 22.90625 -6.78125 22.90625 25 
Q 22.90625 56.78125 6 73.296875 
Q 5.609375 73.53125 5.609375 74.125 
Q 5.609375 74.46875 5.875 74.734375 
Q 6.15625 75 6.5 75 
L 7.421875 75 
Q 7.71875 75 7.90625 74.8125 
Q 15.09375 69.140625 19.875 61.03125 
Q 24.65625 52.9375 26.875 43.75 
Q 29.109375 34.578125 29.109375 25 
Q 29.109375 17.921875 27.90625 11.0625 
Q 26.703125 4.203125 24.09375 -2.453125 
Q 21.484375 -9.125 17.484375 -14.765625 
Q 13.484375 -20.40625 7.90625 -24.8125 
Q 7.71875 -25 7.421875 -25 
z
" id="Cmr10-41"/>
      <path d="M 17.390625 -1.125 
Q 11.078125 -1.125 7.4375 3.640625 
Q 3.8125 8.40625 3.8125 14.890625 
Q 3.8125 21.296875 7.125 28.171875 
Q 10.453125 35.0625 16.09375 39.625 
Q 21.734375 44.1875 28.21875 44.1875 
Q 31.15625 44.1875 33.515625 42.546875 
Q 35.890625 40.921875 37.203125 38.1875 
L 42.828125 60.5 
Q 43.21875 62.203125 43.3125 63.1875 
Q 43.3125 64.796875 36.8125 64.796875 
Q 35.796875 64.796875 35.796875 66.109375 
Q 35.84375 66.359375 36.015625 66.984375 
Q 36.1875 67.625 36.453125 67.96875 
Q 36.71875 68.3125 37.203125 68.3125 
L 50.6875 69.390625 
Q 51.90625 69.390625 51.90625 68.109375 
L 37.5 10.59375 
Q 36.8125 8.9375 36.8125 5.8125 
Q 36.8125 1.515625 39.703125 1.515625 
Q 42.828125 1.515625 44.453125 5.484375 
Q 46.09375 9.46875 47.21875 14.703125 
Q 47.40625 15.28125 48 15.28125 
L 49.21875 15.28125 
Q 49.609375 15.28125 49.84375 14.9375 
Q 50.09375 14.59375 50.09375 14.3125 
Q 48.34375 7.328125 46.265625 3.09375 
Q 44.1875 -1.125 39.5 -1.125 
Q 36.140625 -1.125 33.546875 0.84375 
Q 30.953125 2.828125 30.328125 6.109375 
Q 23.875 -1.125 17.390625 -1.125 
z
M 17.484375 1.515625 
Q 21.09375 1.515625 24.484375 4.21875 
Q 27.875 6.9375 30.328125 10.59375 
Q 30.421875 10.6875 30.421875 10.984375 
L 35.890625 33.015625 
Q 35.296875 36.53125 33.296875 39.0625 
Q 31.296875 41.609375 27.984375 41.609375 
Q 24.609375 41.609375 21.703125 38.84375 
Q 18.796875 36.078125 16.796875 32.328125 
Q 14.84375 28.328125 13.0625 21.34375 
Q 11.28125 14.359375 11.28125 10.5 
Q 11.28125 7.03125 12.765625 4.265625 
Q 14.265625 1.515625 17.484375 1.515625 
z
" id="Cmmi10-100"/>
     </defs>
     <use transform="translate(0 0.990104)" xlink:href="#Cmr10-65"/>
     <use transform="translate(75 0.990104)" xlink:href="#Cmr10-114"/>
     <use transform="translate(114.111328 0.990104)" xlink:href="#Cmr10-101"/>
     <use transform="translate(158.496094 0.990104)" xlink:href="#Cmr10-97"/>
     <use transform="translate(226.054688 0.990104)" xlink:href="#Cmr10-61"/>
     <use transform="translate(321.298828 145.432813)" xlink:href="#Cmex10-90"/>
     <use transform="translate(429.899102 128.426562)scale(0.7)" xlink:href="#Cmmi10-98"/>
     <use transform="translate(369.233164 -93.792187)scale(0.7)" xlink:href="#Cmmi10-97"/>
     <use transform="translate(459.943047 0.990104)" xlink:href="#Cmmi10-102"/>
     <use transform="translate(508.82 0.990104)" xlink:href="#Cmr10-40"/>
     <use transform="translate(547.638359 0.990104)" xlink:href="#Cmmi10-120"/>
     <use transform="translate(604.718437 0.990104)" xlink:href="#Cmr10-41"/>
     <use transform="translate(643.536797 0.990104)" xlink:href="#Cmmi10-100"/>
     <use transform="translate(695.53875 0.990104)" xlink:href="#Cmmi10-120"/>
    </g>
   </g>
   <g id="text_18">
    <!-- $\mathrm{Length}=f(x)$ -->
    <g transform="translate(205.358205 216.007973)scale(0.16 -0.16)">
     <defs>
      <path d="M 3.078125 0 
L 3.078125 3.515625 
Q 13.375 3.515625 13.375 6.6875 
L 13.375 61.625 
Q 13.375 64.796875 3.078125 64.796875 
L 3.078125 68.3125 
L 35.5 68.3125 
L 35.5 64.796875 
Q 22.703125 64.796875 22.703125 61.625 
L 22.703125 6.6875 
Q 22.703125 4.546875 23.921875 4.03125 
Q 25.140625 3.515625 27.78125 3.515625 
L 35.5 3.515625 
Q 42.96875 3.515625 47.015625 6.25 
Q 51.078125 8.984375 52.75 13.6875 
Q 54.4375 18.40625 55.328125 26.21875 
L 58.203125 26.21875 
L 55.421875 0 
z
" id="Cmr10-76"/>
      <path d="M 2.984375 0 
L 2.984375 3.515625 
Q 6.390625 3.515625 8.59375 4.046875 
Q 10.796875 4.59375 10.796875 6.6875 
L 10.796875 33.984375 
Q 10.796875 36.671875 9.984375 37.859375 
Q 9.1875 39.0625 7.671875 39.328125 
Q 6.15625 39.59375 2.984375 39.59375 
L 2.984375 43.109375 
L 17.484375 44.1875 
L 17.484375 34.421875 
Q 19.484375 38.71875 23.40625 41.453125 
Q 27.34375 44.1875 31.984375 44.1875 
Q 38.921875 44.1875 42.40625 40.859375 
Q 45.90625 37.546875 45.90625 30.71875 
L 45.90625 6.6875 
Q 45.90625 4.59375 48.09375 4.046875 
Q 50.296875 3.515625 53.71875 3.515625 
L 53.71875 0 
L 30.8125 0 
L 30.8125 3.515625 
Q 34.234375 3.515625 36.421875 4.046875 
Q 38.625 4.59375 38.625 6.6875 
L 38.625 30.421875 
Q 38.625 35.296875 37.203125 38.453125 
Q 35.796875 41.609375 31.390625 41.609375 
Q 25.59375 41.609375 21.84375 36.96875 
Q 18.109375 32.328125 18.109375 26.421875 
L 18.109375 6.6875 
Q 18.109375 4.59375 20.3125 4.046875 
Q 22.515625 3.515625 25.875 3.515625 
L 25.875 0 
z
" id="Cmr10-110"/>
      <path d="M 2.78125 -7.8125 
Q 2.78125 -4.25 5.359375 -1.578125 
Q 7.953125 1.078125 11.53125 2.203125 
Q 9.515625 3.71875 8.46875 6 
Q 7.421875 8.296875 7.421875 10.890625 
Q 7.421875 15.578125 10.40625 19.1875 
Q 5.8125 23.6875 5.8125 29.5 
Q 5.8125 32.625 7.15625 35.359375 
Q 8.5 38.09375 10.890625 40.09375 
Q 13.28125 42.09375 16.203125 43.140625 
Q 19.140625 44.1875 22.21875 44.1875 
Q 28.171875 44.1875 32.90625 40.71875 
Q 34.96875 42.921875 37.765625 44.109375 
Q 40.578125 45.3125 43.609375 45.3125 
Q 45.75 45.3125 47.109375 43.765625 
Q 48.484375 42.234375 48.484375 40.09375 
Q 48.484375 38.875 47.546875 37.9375 
Q 46.625 37.015625 45.40625 37.015625 
Q 44.140625 37.015625 43.203125 37.9375 
Q 42.28125 38.875 42.28125 40.09375 
Q 42.28125 41.9375 43.5 42.671875 
Q 38.328125 42.671875 34.625 39.109375 
Q 36.421875 37.3125 37.515625 34.6875 
Q 38.625 32.078125 38.625 29.5 
Q 38.625 25.25 36.28125 21.84375 
Q 33.9375 18.453125 30.09375 16.578125 
Q 26.265625 14.703125 22.21875 14.703125 
Q 16.75 14.703125 12.203125 17.671875 
Q 10.796875 15.71875 10.796875 13.28125 
Q 10.796875 10.640625 12.53125 8.65625 
Q 14.265625 6.6875 16.890625 6.6875 
L 25.09375 6.6875 
Q 31.0625 6.6875 35.84375 5.609375 
Q 40.625 4.546875 43.875 1.3125 
Q 47.125 -1.90625 47.125 -7.8125 
Q 47.125 -12.203125 43.40625 -15.109375 
Q 39.703125 -18.015625 34.546875 -19.3125 
Q 29.390625 -20.609375 25 -20.609375 
Q 20.5625 -20.609375 15.375 -19.3125 
Q 10.203125 -18.015625 6.484375 -15.109375 
Q 2.78125 -12.203125 2.78125 -7.8125 
z
M 8.40625 -7.8125 
Q 8.40625 -11.1875 11.140625 -13.453125 
Q 13.875 -15.71875 17.71875 -16.8125 
Q 21.578125 -17.921875 25 -17.921875 
Q 28.375 -17.921875 32.21875 -16.8125 
Q 36.078125 -15.71875 38.78125 -13.453125 
Q 41.5 -11.1875 41.5 -7.8125 
Q 41.5 -2.59375 36.71875 -1.046875 
Q 31.9375 0.484375 25.09375 0.484375 
L 16.890625 0.484375 
Q 14.59375 0.484375 12.671875 -0.609375 
Q 10.75 -1.703125 9.578125 -3.6875 
Q 8.40625 -5.671875 8.40625 -7.8125 
z
M 22.21875 17.390625 
Q 30.71875 17.390625 30.71875 29.5 
Q 30.71875 34.71875 28.90625 38.109375 
Q 27.09375 41.5 22.21875 41.5 
Q 17.328125 41.5 15.515625 38.109375 
Q 13.71875 34.71875 13.71875 29.5 
Q 13.71875 26.171875 14.40625 23.484375 
Q 15.09375 20.796875 16.9375 19.09375 
Q 18.796875 17.390625 22.21875 17.390625 
z
" id="Cmr10-103"/>
      <path d="M 10.203125 12.015625 
L 10.203125 39.59375 
L 1.90625 39.59375 
L 1.90625 42.1875 
Q 8.453125 42.1875 11.515625 48.28125 
Q 14.59375 54.390625 14.59375 61.53125 
L 17.484375 61.53125 
L 17.484375 43.109375 
L 31.59375 43.109375 
L 31.59375 39.59375 
L 17.484375 39.59375 
L 17.484375 12.203125 
Q 17.484375 8.0625 18.875 4.9375 
Q 20.265625 1.8125 23.875 1.8125 
Q 27.296875 1.8125 28.8125 5.109375 
Q 30.328125 8.40625 30.328125 12.203125 
L 30.328125 18.109375 
L 33.203125 18.109375 
L 33.203125 12.015625 
Q 33.203125 8.890625 32.046875 5.828125 
Q 30.90625 2.78125 28.65625 0.828125 
Q 26.421875 -1.125 23.1875 -1.125 
Q 17.1875 -1.125 13.6875 2.46875 
Q 10.203125 6.0625 10.203125 12.015625 
z
" id="Cmr10-116"/>
      <path d="M 2.984375 0 
L 2.984375 3.515625 
Q 6.390625 3.515625 8.59375 4.046875 
Q 10.796875 4.59375 10.796875 6.6875 
L 10.796875 59.1875 
Q 10.796875 61.859375 9.984375 63.0625 
Q 9.1875 64.265625 7.671875 64.53125 
Q 6.15625 64.796875 2.984375 64.796875 
L 2.984375 68.3125 
L 17.828125 69.390625 
L 17.828125 35.015625 
Q 19.921875 39.15625 23.671875 41.671875 
Q 27.4375 44.1875 31.984375 44.1875 
Q 38.921875 44.1875 42.40625 40.859375 
Q 45.90625 37.546875 45.90625 30.71875 
L 45.90625 6.6875 
Q 45.90625 4.59375 48.09375 4.046875 
Q 50.296875 3.515625 53.71875 3.515625 
L 53.71875 0 
L 30.8125 0 
L 30.8125 3.515625 
Q 34.234375 3.515625 36.421875 4.046875 
Q 38.625 4.59375 38.625 6.6875 
L 38.625 30.421875 
Q 38.625 35.296875 37.203125 38.453125 
Q 35.796875 41.609375 31.390625 41.609375 
Q 25.59375 41.609375 21.84375 36.96875 
Q 18.109375 32.328125 18.109375 26.421875 
L 18.109375 6.6875 
Q 18.109375 4.59375 20.3125 4.046875 
Q 22.515625 3.515625 25.875 3.515625 
L 25.875 0 
z
" id="Cmr10-104"/>
     </defs>
     <use xlink:href="#Cmr10-76"/>
     <use transform="translate(62.5 0)" xlink:href="#Cmr10-101"/>
     <use transform="translate(106.884766 0)" xlink:href="#Cmr10-110"/>
     <use transform="translate(162.402344 0)" xlink:href="#Cmr10-103"/>
     <use transform="translate(212.402344 0)" xlink:href="#Cmr10-116"/>
     <use transform="translate(251.220703 0)" xlink:href="#Cmr10-104"/>
     <use transform="translate(324.296875 0)" xlink:href="#Cmr10-61"/>
     <use transform="translate(419.541016 0)" xlink:href="#Cmmi10-102"/>
     <use transform="translate(468.417969 0)" xlink:href="#Cmr10-40"/>
     <use transform="translate(507.236328 0)" xlink:href="#Cmmi10-120"/>
     <use transform="translate(564.316406 0)" xlink:href="#Cmr10-41"/>
    </g>
   </g>
  </g>
 </g>
 <defs>
  <clipPath id="p6f6e050d69">
   <rect height="321.412998" width="409.42" x="36.925" y="9.340897"/>
  </clipPath>
 </defs>
</svg>
